<svg xmlns="http://www.w3.org/2000/svg" xmlns:xlink="http://www.w3.org/1999/xlink" width="500" zoomAndPan="magnify" viewBox="0 0 375 374.999991" height="500" preserveAspectRatio="xMidYMid meet" version="1.2"><defs><clipPath id="9c75767bde"><path d="M 262.5 169.484375 L 287.542969 169.484375 L 287.542969 194.527344 L 262.5 194.527344 Z M 262.5 169.484375 "/></clipPath><clipPath id="26b4ca7118"><path d="M 275.019531 169.484375 C 268.105469 169.484375 262.5 175.089844 262.5 182.007812 C 262.5 188.921875 268.105469 194.527344 275.019531 194.527344 C 281.9375 194.527344 287.542969 188.921875 287.542969 182.007812 C 287.542969 175.089844 281.9375 169.484375 275.019531 169.484375 Z M 275.019531 169.484375 "/></clipPath><clipPath id="c86307a5d7"><path d="M 106.746094 198.734375 L 135.804688 198.734375 L 135.804688 227.789062 L 106.746094 227.789062 Z M 106.746094 198.734375 "/></clipPath><clipPath id="b726c88401"><path d="M 121.273438 198.734375 C 113.25 198.734375 106.746094 205.238281 106.746094 213.261719 C 106.746094 221.285156 113.25 227.789062 121.273438 227.789062 C 129.300781 227.789062 135.804688 221.285156 135.804688 213.261719 C 135.804688 205.238281 129.300781 198.734375 121.273438 198.734375 Z M 121.273438 198.734375 "/></clipPath><clipPath id="8672e8ad21"><path d="M 233.796875 210.035156 L 251.554688 210.035156 L 251.554688 227.789062 L 233.796875 227.789062 Z M 233.796875 210.035156 "/></clipPath><clipPath id="d7d47a4335"><path d="M 242.675781 210.035156 C 237.773438 210.035156 233.796875 214.007812 233.796875 218.914062 C 233.796875 223.816406 237.773438 227.789062 242.675781 227.789062 C 247.578125 227.789062 251.554688 223.816406 251.554688 218.914062 C 251.554688 214.007812 247.578125 210.035156 242.675781 210.035156 Z M 242.675781 210.035156 "/></clipPath><clipPath id="94cb6001b8"><path d="M 102.03125 167.894531 L 112.5 167.894531 L 112.5 178.363281 L 102.03125 178.363281 Z M 102.03125 167.894531 "/></clipPath><clipPath id="f8dd61cb8e"><path d="M 107.265625 167.894531 C 104.375 167.894531 102.03125 170.238281 102.03125 173.128906 C 102.03125 176.019531 104.375 178.363281 107.265625 178.363281 C 110.15625 178.363281 112.5 176.019531 112.5 173.128906 C 112.5 170.238281 110.15625 167.894531 107.265625 167.894531 Z M 107.265625 167.894531 "/></clipPath><clipPath id="5d71fd9f93"><path d="M 287.542969 198.734375 L 298.011719 198.734375 L 298.011719 209.203125 L 287.542969 209.203125 Z M 287.542969 198.734375 "/></clipPath><clipPath id="f9db003930"><path d="M 292.777344 198.734375 C 289.886719 198.734375 287.542969 201.078125 287.542969 203.96875 C 287.542969 206.859375 289.886719 209.203125 292.777344 209.203125 C 295.667969 209.203125 298.011719 206.859375 298.011719 203.96875 C 298.011719 201.078125 295.667969 198.734375 292.777344 198.734375 Z M 292.777344 198.734375 "/></clipPath><clipPath id="b589335300"><path d="M 205 125.113281 L 239 125.113281 L 239 158 L 205 158 Z M 205 125.113281 "/></clipPath><clipPath id="07983e9f9a"><path d="M 136 125.113281 L 170 125.113281 L 170 158 L 136 158 Z M 136 125.113281 "/></clipPath></defs><g id="0f87a8edd2"><g clip-rule="nonzero" clip-path="url(#9c75767bde)"><g clip-rule="nonzero" clip-path="url(#26b4ca7118)"><path style=" stroke:none;fill-rule:nonzero;fill:#57c5f0;fill-opacity:1;" d="M 262.5 169.484375 L 287.542969 169.484375 L 287.542969 194.527344 L 262.5 194.527344 Z M 262.5 169.484375 "/></g></g><g clip-rule="nonzero" clip-path="url(#c86307a5d7)"><g clip-rule="nonzero" clip-path="url(#b726c88401)"><path style=" stroke:none;fill-rule:nonzero;fill:#57c5f0;fill-opacity:1;" d="M 106.746094 198.734375 L 135.804688 198.734375 L 135.804688 227.789062 L 106.746094 227.789062 Z M 106.746094 198.734375 "/></g></g><g clip-rule="nonzero" clip-path="url(#8672e8ad21)"><g clip-rule="nonzero" clip-path="url(#d7d47a4335)"><path style=" stroke:none;fill-rule:nonzero;fill:#faad26;fill-opacity:1;" d="M 233.796875 210.035156 L 251.554688 210.035156 L 251.554688 227.789062 L 233.796875 227.789062 Z M 233.796875 210.035156 "/></g></g><g clip-rule="nonzero" clip-path="url(#94cb6001b8)"><g clip-rule="nonzero" clip-path="url(#f8dd61cb8e)"><path style=" stroke:none;fill-rule:nonzero;fill:#faad26;fill-opacity:1;" d="M 102.03125 167.894531 L 112.5 167.894531 L 112.5 178.363281 L 102.03125 178.363281 Z M 102.03125 167.894531 "/></g></g><g clip-rule="nonzero" clip-path="url(#5d71fd9f93)"><g clip-rule="nonzero" clip-path="url(#f9db003930)"><path style=" stroke:none;fill-rule:nonzero;fill:#faad26;fill-opacity:1;" d="M 287.542969 198.734375 L 298.011719 198.734375 L 298.011719 209.203125 L 287.542969 209.203125 Z M 287.542969 198.734375 "/></g></g><path style=" stroke:none;fill-rule:nonzero;fill:#57c5f0;fill-opacity:1;" d="M 217.347656 150.503906 C 214.710938 152.070312 211.015625 154.75 209.671875 155.542969 C 206.289062 157.53125 203.300781 160.109375 199.960938 162.164062 C 194.917969 165.265625 187.597656 166.929688 181.824219 165.25 C 175.644531 163.453125 170.773438 158.746094 165.328125 155.542969 C 163.984375 154.75 160.289062 152.070312 157.652344 150.503906 C 153.011719 147.75 150.164062 152.441406 153.277344 155.042969 C 155.320312 156.753906 158.851562 160.066406 161.480469 162.5 C 189.667969 188.625 184.804688 231.191406 187.5 230.105469 C 190.195312 231.191406 185.335938 188.625 213.523438 162.5 C 216.148438 160.066406 219.679688 156.753906 221.726562 155.042969 C 224.835938 152.441406 221.988281 147.75 217.347656 150.503906 "/><path style=" stroke:none;fill-rule:nonzero;fill:#faad26;fill-opacity:1;" d="M 195.910156 146.277344 C 198.464844 147.976562 202.019531 150.839844 203.324219 151.695312 C 208.507812 155.109375 213.773438 160.914062 219.765625 162.234375 C 226.125 163.640625 238.152344 154.710938 247.9375 146.957031 C 255.875 141.539062 262.238281 147.355469 255.589844 153.425781 C 251.335938 157.308594 249.445312 158.5625 244.3125 162.761719 C 214.796875 188.378906 204.929688 228.671875 202.253906 230.085938 C 199.359375 231.621094 226.144531 186.144531 199.128906 158.453125 C 196.628906 155.890625 193.269531 152.402344 191.308594 150.59375 C 188.335938 147.839844 191.414062 143.296875 195.910156 146.277344 "/><g clip-rule="nonzero" clip-path="url(#b589335300)"><path style=" stroke:none;fill-rule:nonzero;fill:#faad26;fill-opacity:1;" d="M 222.492188 157.910156 C 231.515625 157.816406 238.761719 150.421875 238.667969 141.394531 C 238.574219 132.371094 231.179688 125.128906 222.152344 125.222656 C 213.125 125.316406 205.886719 132.710938 205.980469 141.734375 C 206.070312 150.761719 213.464844 158.003906 222.492188 157.910156 "/></g><path style=" stroke:none;fill-rule:nonzero;fill:#faad26;fill-opacity:1;" d="M 179.089844 146.277344 C 176.535156 147.976562 172.980469 150.839844 171.679688 151.695312 C 166.492188 155.109375 161.230469 160.914062 155.234375 162.234375 C 148.875 163.640625 136.847656 154.710938 127.0625 146.957031 C 119.125 141.539062 112.761719 147.355469 119.410156 153.425781 C 123.660156 157.308594 125.554688 158.5625 130.6875 162.761719 C 160.203125 188.378906 170.070312 228.671875 172.746094 230.085938 C 175.640625 231.621094 148.855469 186.144531 175.871094 158.453125 C 178.371094 155.890625 181.730469 152.402344 183.6875 150.59375 C 186.664062 147.839844 183.585938 143.296875 179.089844 146.277344 "/><g clip-rule="nonzero" clip-path="url(#07983e9f9a)"><path style=" stroke:none;fill-rule:nonzero;fill:#faad26;fill-opacity:1;" d="M 152.507812 157.910156 C 143.484375 157.816406 136.238281 150.421875 136.332031 141.394531 C 136.429688 132.371094 143.820312 125.128906 152.847656 125.222656 C 161.871094 125.316406 169.113281 132.710938 169.019531 141.734375 C 168.925781 150.761719 161.535156 158.003906 152.507812 157.910156 "/></g><path style=" stroke:none;fill-rule:nonzero;fill:#57c5f0;fill-opacity:1;" d="M 188.1875 162.765625 C 179.167969 163.144531 171.546875 156.140625 171.167969 147.121094 C 170.792969 138.101562 177.796875 130.484375 186.8125 130.101562 C 195.832031 129.726562 203.453125 136.730469 203.832031 145.75 C 204.207031 154.769531 197.203125 162.390625 188.1875 162.765625 "/><g style="fill:#ffffff;fill-opacity:1;"><g transform="translate(98.899228, 254.240452)"><path style="stroke:none" d="M 13.78125 -13.125 L 13.78125 -10.5 L 3.28125 -10.5 L 3.28125 -2.625 L 11.15625 -2.625 L 11.15625 -5.25 L 5.90625 -5.25 L 5.90625 -7.875 L 13.78125 -7.875 L 13.78125 -2.625 C 13.78125 -2.15625 13.660156 -1.71875 13.421875 -1.3125 C 13.191406 -0.914062 12.878906 -0.597656 12.484375 -0.359375 C 12.085938 -0.117188 11.644531 0 11.15625 0 L 3.28125 0 C 2.800781 0 2.359375 -0.113281 1.953125 -0.34375 C 1.554688 -0.582031 1.238281 -0.898438 1 -1.296875 C 0.769531 -1.703125 0.65625 -2.144531 0.65625 -2.625 L 0.65625 -10.5 C 0.65625 -10.976562 0.769531 -11.414062 1 -11.8125 C 1.238281 -12.21875 1.554688 -12.535156 1.953125 -12.765625 C 2.359375 -13.003906 2.800781 -13.125 3.28125 -13.125 Z M 13.78125 -13.125 "/></g></g><g style="fill:#ffffff;fill-opacity:1;"><g transform="translate(115.896522, 254.240452)"><path style="stroke:none" d="M 13.78125 -10.5 L 13.78125 -7.875 C 13.78125 -7.394531 13.660156 -6.953125 13.421875 -6.546875 C 13.191406 -6.148438 12.875 -5.832031 12.46875 -5.59375 C 12.070312 -5.363281 11.632812 -5.25 11.15625 -5.25 L 8.53125 -5.25 L 11.15625 -2.625 L 13.78125 -2.625 L 13.78125 0 L 10.625 0 C 10.257812 0 9.945312 -0.128906 9.6875 -0.390625 L 4.828125 -5.25 L 3.28125 -5.25 L 3.28125 0 L 0.65625 0 L 0.65625 -13.125 L 11.15625 -13.125 C 11.632812 -13.125 12.070312 -13.003906 12.46875 -12.765625 C 12.875 -12.535156 13.191406 -12.21875 13.421875 -11.8125 C 13.660156 -11.414062 13.78125 -10.976562 13.78125 -10.5 Z M 11.15625 -10.5 L 3.28125 -10.5 L 3.28125 -7.875 L 11.15625 -7.875 Z M 11.15625 -10.5 "/></g></g><g style="fill:#ffffff;fill-opacity:1;"><g transform="translate(132.893817, 254.240452)"><path style="stroke:none" d="M 3.28125 -13.125 L 11.15625 -13.125 C 11.632812 -13.125 12.070312 -13.003906 12.46875 -12.765625 C 12.875 -12.535156 13.191406 -12.21875 13.421875 -11.8125 C 13.660156 -11.414062 13.78125 -10.976562 13.78125 -10.5 L 13.78125 0 L 11.15625 0 L 11.15625 -5.25 L 3.28125 -5.25 L 3.28125 0 L 0.65625 0 L 0.65625 -10.5 C 0.65625 -10.976562 0.769531 -11.414062 1 -11.8125 C 1.238281 -12.21875 1.554688 -12.535156 1.953125 -12.765625 C 2.359375 -13.003906 2.800781 -13.125 3.28125 -13.125 Z M 3.28125 -10.5 L 3.28125 -7.875 L 11.15625 -7.875 L 11.15625 -10.5 Z M 3.28125 -10.5 "/></g></g><g style="fill:#ffffff;fill-opacity:1;"><g transform="translate(149.891111, 254.240452)"><path style="stroke:none" d="M 13.78125 0 L 3.28125 0 C 2.800781 0 2.359375 -0.113281 1.953125 -0.34375 C 1.554688 -0.582031 1.238281 -0.898438 1 -1.296875 C 0.769531 -1.703125 0.65625 -2.144531 0.65625 -2.625 L 0.65625 -10.5 C 0.65625 -10.976562 0.769531 -11.414062 1 -11.8125 C 1.238281 -12.21875 1.554688 -12.535156 1.953125 -12.765625 C 2.359375 -13.003906 2.800781 -13.125 3.28125 -13.125 L 13.78125 -13.125 L 13.78125 -10.5 L 3.28125 -10.5 L 3.28125 -2.625 L 13.78125 -2.625 Z M 13.78125 0 "/></g></g><g style="fill:#ffffff;fill-opacity:1;"><g transform="translate(166.888406, 254.240452)"><path style="stroke:none" d="M 13.78125 -13.125 L 13.78125 -10.5 L 3.28125 -10.5 L 3.28125 -7.875 L 13.78125 -7.875 L 13.78125 -5.25 L 3.28125 -5.25 L 3.28125 -2.625 L 13.78125 -2.625 L 13.78125 0 L 3.28125 0 C 2.800781 0 2.359375 -0.113281 1.953125 -0.34375 C 1.554688 -0.582031 1.238281 -0.898438 1 -1.296875 C 0.769531 -1.703125 0.65625 -2.144531 0.65625 -2.625 L 0.65625 -10.5 C 0.65625 -10.976562 0.769531 -11.414062 1 -11.8125 C 1.238281 -12.21875 1.554688 -12.535156 1.953125 -12.765625 C 2.359375 -13.003906 2.800781 -13.125 3.28125 -13.125 Z M 13.78125 -13.125 "/></g></g><g style="fill:#ffffff;fill-opacity:1;"><g transform="translate(183.8857, 254.240452)"><path style="stroke:none" d=""/></g></g><g style="fill:#ffffff;fill-opacity:1;"><g transform="translate(193.664485, 254.240452)"><path style="stroke:none" d="M 11.15625 -7.875 L 11.15625 -13.125 L 13.78125 -13.125 L 13.78125 0 L 11.15625 0 L 11.15625 -5.25 L 3.28125 -5.25 L 3.28125 0 L 0.65625 0 L 0.65625 -13.125 L 3.28125 -13.125 L 3.28125 -7.875 Z M 11.15625 -7.875 "/></g></g><g style="fill:#ffffff;fill-opacity:1;"><g transform="translate(210.661779, 254.240452)"><path style="stroke:none" d="M 3.28125 -13.125 L 11.15625 -13.125 C 11.632812 -13.125 12.070312 -13.003906 12.46875 -12.765625 C 12.875 -12.535156 13.191406 -12.21875 13.421875 -11.8125 C 13.660156 -11.414062 13.78125 -10.976562 13.78125 -10.5 L 13.78125 0 L 11.15625 0 L 11.15625 -5.25 L 3.28125 -5.25 L 3.28125 0 L 0.65625 0 L 0.65625 -10.5 C 0.65625 -10.976562 0.769531 -11.414062 1 -11.8125 C 1.238281 -12.21875 1.554688 -12.535156 1.953125 -12.765625 C 2.359375 -13.003906 2.800781 -13.125 3.28125 -13.125 Z M 3.28125 -10.5 L 3.28125 -7.875 L 11.15625 -7.875 L 11.15625 -10.5 Z M 3.28125 -10.5 "/></g></g><g style="fill:#ffffff;fill-opacity:1;"><g transform="translate(227.659074, 254.240452)"><path style="stroke:none" d="M 7.21875 0 C 6.625 0 6.078125 -0.207031 5.578125 -0.625 L 1.15625 -4.4375 C 0.820312 -4.726562 0.65625 -5.078125 0.65625 -5.484375 L 0.65625 -13.125 L 3.28125 -13.125 L 3.28125 -6.078125 L 7.21875 -2.671875 L 11.15625 -6.078125 L 11.15625 -13.125 L 13.78125 -13.125 L 13.765625 -5.484375 C 13.765625 -5.066406 13.609375 -4.71875 13.296875 -4.4375 L 8.859375 -0.625 C 8.378906 -0.207031 7.832031 0 7.21875 0 Z M 7.21875 0 "/></g></g><g style="fill:#ffffff;fill-opacity:1;"><g transform="translate(244.656368, 254.240452)"><path style="stroke:none" d="M 13.78125 -13.125 L 13.78125 -10.5 L 3.28125 -10.5 L 3.28125 -7.875 L 13.78125 -7.875 L 13.78125 -5.25 L 3.28125 -5.25 L 3.28125 -2.625 L 13.78125 -2.625 L 13.78125 0 L 3.28125 0 C 2.800781 0 2.359375 -0.113281 1.953125 -0.34375 C 1.554688 -0.582031 1.238281 -0.898438 1 -1.296875 C 0.769531 -1.703125 0.65625 -2.144531 0.65625 -2.625 L 0.65625 -10.5 C 0.65625 -10.976562 0.769531 -11.414062 1 -11.8125 C 1.238281 -12.21875 1.554688 -12.535156 1.953125 -12.765625 C 2.359375 -13.003906 2.800781 -13.125 3.28125 -13.125 Z M 13.78125 -13.125 "/></g></g><g style="fill:#ffffff;fill-opacity:1;"><g transform="translate(261.653663, 254.240452)"><path style="stroke:none" d="M 3.28125 0 L 0.65625 0 L 0.65625 -11.8125 C 0.65625 -12.175781 0.78125 -12.484375 1.03125 -12.734375 C 1.289062 -12.992188 1.601562 -13.125 1.96875 -13.125 C 2.332031 -13.125 2.644531 -12.992188 2.90625 -12.734375 L 11.15625 -4.484375 L 11.15625 -13.125 L 13.78125 -13.125 L 13.78125 -1.3125 C 13.78125 -0.945312 13.648438 -0.632812 13.390625 -0.375 C 13.140625 -0.125 12.832031 0 12.46875 0 C 12.101562 0 11.789062 -0.128906 11.53125 -0.390625 L 3.28125 -8.640625 Z M 3.28125 0 "/></g></g><g style="fill:#ffffff;fill-opacity:1;"><g transform="translate(128.830058, 270.392706)"><path style="stroke:none" d="M 5.015625 0.09375 C 4.171875 0.09375 3.410156 -0.0859375 2.734375 -0.453125 C 2.066406 -0.828125 1.539062 -1.335938 1.15625 -1.984375 C 0.769531 -2.640625 0.578125 -3.378906 0.578125 -4.203125 C 0.578125 -5.015625 0.769531 -5.742188 1.15625 -6.390625 C 1.539062 -7.046875 2.070312 -7.5625 2.75 -7.9375 C 3.425781 -8.3125 4.1875 -8.5 5.03125 -8.5 C 5.6875 -8.5 6.285156 -8.390625 6.828125 -8.171875 C 7.367188 -7.953125 7.832031 -7.625 8.21875 -7.1875 L 7.4375 -6.4375 C 6.800781 -7.09375 6.015625 -7.421875 5.078125 -7.421875 C 4.453125 -7.421875 3.882812 -7.28125 3.375 -7 C 2.875 -6.726562 2.484375 -6.34375 2.203125 -5.84375 C 1.921875 -5.351562 1.78125 -4.804688 1.78125 -4.203125 C 1.78125 -3.585938 1.921875 -3.035156 2.203125 -2.546875 C 2.484375 -2.054688 2.875 -1.671875 3.375 -1.390625 C 3.882812 -1.109375 4.453125 -0.96875 5.078125 -0.96875 C 6.015625 -0.96875 6.800781 -1.304688 7.4375 -1.984375 L 8.21875 -1.21875 C 7.832031 -0.789062 7.363281 -0.460938 6.8125 -0.234375 C 6.269531 -0.015625 5.671875 0.09375 5.015625 0.09375 Z M 5.015625 0.09375 "/></g></g><g style="fill:#ffffff;fill-opacity:1;"><g transform="translate(139.354067, 270.392706)"><path style="stroke:none" d="M 8.484375 -8.40625 L 8.484375 0 L 7.28125 0 L 7.28125 -3.75 L 2.453125 -3.75 L 2.453125 0 L 1.265625 0 L 1.265625 -8.40625 L 2.453125 -8.40625 L 2.453125 -4.78125 L 7.28125 -4.78125 L 7.28125 -8.40625 Z M 8.484375 -8.40625 "/></g></g><g style="fill:#ffffff;fill-opacity:1;"><g transform="translate(150.946073, 270.392706)"><path style="stroke:none" d="M 6.609375 -2.09375 L 2.140625 -2.09375 L 1.21875 0 L -0.015625 0 L 3.796875 -8.40625 L 4.984375 -8.40625 L 8.796875 0 L 7.53125 0 Z M 6.1875 -3.0625 L 4.375 -7.171875 L 2.5625 -3.0625 Z M 6.1875 -3.0625 "/></g></g><g style="fill:#ffffff;fill-opacity:1;"><g transform="translate(161.57808, 270.392706)"><path style="stroke:none" d="M 6.875 0 L 5.0625 -2.578125 C 4.84375 -2.566406 4.664062 -2.5625 4.53125 -2.5625 L 2.453125 -2.5625 L 2.453125 0 L 1.265625 0 L 1.265625 -8.40625 L 4.53125 -8.40625 C 5.625 -8.40625 6.484375 -8.144531 7.109375 -7.625 C 7.734375 -7.101562 8.046875 -6.382812 8.046875 -5.46875 C 8.046875 -4.820312 7.882812 -4.269531 7.5625 -3.8125 C 7.238281 -3.351562 6.78125 -3.019531 6.1875 -2.8125 L 8.1875 0 Z M 4.5 -3.578125 C 5.257812 -3.578125 5.835938 -3.738281 6.234375 -4.0625 C 6.640625 -4.394531 6.84375 -4.863281 6.84375 -5.46875 C 6.84375 -6.082031 6.640625 -6.550781 6.234375 -6.875 C 5.835938 -7.195312 5.257812 -7.359375 4.5 -7.359375 L 2.453125 -7.359375 L 2.453125 -3.578125 Z M 4.5 -3.578125 "/></g></g><g style="fill:#ffffff;fill-opacity:1;"><g transform="translate(172.150086, 270.392706)"><path style="stroke:none" d="M 1.265625 -8.40625 L 2.453125 -8.40625 L 2.453125 0 L 1.265625 0 Z M 1.265625 -8.40625 "/></g></g><g style="fill:#ffffff;fill-opacity:1;"><g transform="translate(177.718082, 270.392706)"><path style="stroke:none" d="M 2.921875 -7.359375 L 0.046875 -7.359375 L 0.046875 -8.40625 L 7 -8.40625 L 7 -7.359375 L 4.109375 -7.359375 L 4.109375 0 L 2.921875 0 Z M 2.921875 -7.359375 "/></g></g><g style="fill:#ffffff;fill-opacity:1;"><g transform="translate(186.610084, 270.392706)"><path style="stroke:none" d="M 4.46875 -2.90625 L 4.46875 0 L 3.28125 0 L 3.28125 -2.921875 L -0.046875 -8.40625 L 1.234375 -8.40625 L 3.921875 -3.96875 L 6.625 -8.40625 L 7.8125 -8.40625 Z M 4.46875 -2.90625 "/></g></g><g style="fill:#ffffff;fill-opacity:1;"><g transform="translate(196.22209, 270.392706)"><path style="stroke:none" d=""/></g></g><g style="fill:#ffffff;fill-opacity:1;"><g transform="translate(201.298094, 270.392706)"><path style="stroke:none" d="M 5.015625 0.09375 C 4.171875 0.09375 3.410156 -0.0859375 2.734375 -0.453125 C 2.066406 -0.828125 1.539062 -1.335938 1.15625 -1.984375 C 0.769531 -2.640625 0.578125 -3.378906 0.578125 -4.203125 C 0.578125 -5.015625 0.769531 -5.742188 1.15625 -6.390625 C 1.539062 -7.046875 2.070312 -7.5625 2.75 -7.9375 C 3.425781 -8.3125 4.1875 -8.5 5.03125 -8.5 C 5.6875 -8.5 6.285156 -8.390625 6.828125 -8.171875 C 7.367188 -7.953125 7.832031 -7.625 8.21875 -7.1875 L 7.4375 -6.4375 C 6.800781 -7.09375 6.015625 -7.421875 5.078125 -7.421875 C 4.453125 -7.421875 3.882812 -7.28125 3.375 -7 C 2.875 -6.726562 2.484375 -6.34375 2.203125 -5.84375 C 1.921875 -5.351562 1.78125 -4.804688 1.78125 -4.203125 C 1.78125 -3.585938 1.921875 -3.035156 2.203125 -2.546875 C 2.484375 -2.054688 2.875 -1.671875 3.375 -1.390625 C 3.882812 -1.109375 4.453125 -0.96875 5.078125 -0.96875 C 6.015625 -0.96875 6.800781 -1.304688 7.4375 -1.984375 L 8.21875 -1.21875 C 7.832031 -0.789062 7.363281 -0.460938 6.8125 -0.234375 C 6.269531 -0.015625 5.671875 0.09375 5.015625 0.09375 Z M 5.015625 0.09375 "/></g></g><g style="fill:#ffffff;fill-opacity:1;"><g transform="translate(211.822103, 270.392706)"><path style="stroke:none" d="M 6.609375 -2.09375 L 2.140625 -2.09375 L 1.21875 0 L -0.015625 0 L 3.796875 -8.40625 L 4.984375 -8.40625 L 8.796875 0 L 7.53125 0 Z M 6.1875 -3.0625 L 4.375 -7.171875 L 2.5625 -3.0625 Z M 6.1875 -3.0625 "/></g></g><g style="fill:#ffffff;fill-opacity:1;"><g transform="translate(222.45411, 270.392706)"><path style="stroke:none" d="M 6.875 0 L 5.0625 -2.578125 C 4.84375 -2.566406 4.664062 -2.5625 4.53125 -2.5625 L 2.453125 -2.5625 L 2.453125 0 L 1.265625 0 L 1.265625 -8.40625 L 4.53125 -8.40625 C 5.625 -8.40625 6.484375 -8.144531 7.109375 -7.625 C 7.734375 -7.101562 8.046875 -6.382812 8.046875 -5.46875 C 8.046875 -4.820312 7.882812 -4.269531 7.5625 -3.8125 C 7.238281 -3.351562 6.78125 -3.019531 6.1875 -2.8125 L 8.1875 0 Z M 4.5 -3.578125 C 5.257812 -3.578125 5.835938 -3.738281 6.234375 -4.0625 C 6.640625 -4.394531 6.84375 -4.863281 6.84375 -5.46875 C 6.84375 -6.082031 6.640625 -6.550781 6.234375 -6.875 C 5.835938 -7.195312 5.257812 -7.359375 4.5 -7.359375 L 2.453125 -7.359375 L 2.453125 -3.578125 Z M 4.5 -3.578125 "/></g></g><g style="fill:#ffffff;fill-opacity:1;"><g transform="translate(233.026116, 270.392706)"><path style="stroke:none" d="M 7.359375 -1.046875 L 7.359375 0 L 1.265625 0 L 1.265625 -8.40625 L 7.1875 -8.40625 L 7.1875 -7.359375 L 2.453125 -7.359375 L 2.453125 -4.78125 L 6.671875 -4.78125 L 6.671875 -3.75 L 2.453125 -3.75 L 2.453125 -1.046875 Z M 7.359375 -1.046875 "/></g></g><g style="fill:#ffffff;fill-opacity:1;"><g transform="translate(242.923805, 270.392706)"><path style="stroke:none" d=""/></g></g></g></svg>